<svg id="check-default" width="16" height="16" viewBox="0 0 16 16" xmlns="http://www.w3.org/2000/svg" xmlns:xlink="http://www.w3.org/1999/xlink"><title>58CCC2EC-9C0D-456B-A2EB-8E98024A48A0</title><defs><path d="M16 8A8 8 0 1 0 0 8a8 8 0 0 0 16 0z" id="a"/><mask id="b" x="0" y="0" width="16" height="16" fill="#fff"><use xlink:href="#a"/></mask></defs><g fill="none" fill-rule="evenodd"><path d="M16 8A8 8 0 1 1 0 8a8 8 0 0 1 16 0zm-4.032-3.17a1.095 1.095 0 0 0-1.998-.306L7.067 9.288l-1.29-1.025a1.1 1.1 0 0 0-1.538.172 1.087 1.087 0 0 0 .17 1.53l2.263 1.797a1.103 1.103 0 0 0 .872.22c.31-.054.582-.24.745-.506l3.55-5.822c.15-.248.198-.54.128-.823z" fill="#F3F3F3"/><use stroke="#000" mask="url(#b)" stroke-width="2" stroke-linecap="round" stroke-linejoin="round" xlink:href="#a"/><path d="M11.968 4.83a1.095 1.095 0 0 0-1.998-.306L7.067 9.288l-1.29-1.025a1.1 1.1 0 0 0-1.538.172 1.087 1.087 0 0 0 .17 1.53l2.263 1.797a1.103 1.103 0 0 0 .872.22c.31-.054.582-.24.745-.506l3.55-5.822c.15-.248.198-.54.128-.823z" stroke="#000"/></g></svg>
