<svg width="16" height="16" viewBox="0 0 16 16" xmlns="http://www.w3.org/2000/svg" xmlns:xlink="http://www.w3.org/1999/xlink"><title>9BA36CE7-E372-46C1-A6A2-B601423AAA71</title><defs><path d="M15.97 6.067a.646.646 0 0 0-.518-.46L10.7 4.883 8.573.373A.633.633 0 0 0 8 0a.638.638 0 0 0-.573.373L5.3 4.883l-4.757.725a.648.648 0 0 0-.513.458.694.694 0 0 0 .162.683l3.44 3.512-.81 4.954a.687.687 0 0 0 .251.656c.194.15.469.167.675.052L8 13.583l4.249 2.34a.614.614 0 0 0 .674-.05c.2-.15.297-.4.256-.655l-.812-4.958 3.438-3.509a.69.69 0 0 0 .164-.684z" id="a"/><mask id="b" x="0" y="0" width="16" height="16" fill="#fff"><use xlink:href="#a"/></mask></defs><g fill="none" fill-rule="evenodd"><path d="M15.97 6.067a.646.646 0 0 0-.518-.46L10.7 4.883 8.573.373A.633.633 0 0 0 8 0a.638.638 0 0 0-.573.373L5.3 4.883l-4.757.725a.648.648 0 0 0-.513.458.694.694 0 0 0 .162.683l3.44 3.512-.81 4.954a.687.687 0 0 0 .251.656c.194.15.469.167.675.052L8 13.583l4.249 2.34a.614.614 0 0 0 .674-.05c.2-.15.297-.4.256-.655l-.812-4.958 3.438-3.509a.69.69 0 0 0 .164-.684z" fill="#47B347"/><use stroke="#000" mask="url(#b)" stroke-width="2" stroke-linecap="round" stroke-linejoin="round" xlink:href="#a"/></g></svg>