<svg width="16" height="16" viewBox="0 0 16 16" xmlns="http://www.w3.org/2000/svg" xmlns:xlink="http://www.w3.org/1999/xlink"><title>C26AEC1F-8A3B-42B4-89C6-7C619FE46224</title><defs><rect id="a" y="1" width="16" height="15" rx="1"/><mask id="f" x="0" y="0" width="16" height="15" fill="#fff"><use xlink:href="#a"/></mask><rect id="b" x="2.737" y="7" width="4.263" height="3" rx="1"/><mask id="g" x="0" y="0" width="4.263" height="3" fill="#fff"><use xlink:href="#b"/></mask><rect id="c" x="9" y="7" width="4" height="3" rx="1"/><mask id="h" x="0" y="0" width="4" height="3" fill="#fff"><use xlink:href="#c"/></mask><rect id="d" x="2.737" y="11" width="4.263" height="3" rx="1"/><mask id="i" x="0" y="0" width="4.263" height="3" fill="#fff"><use xlink:href="#d"/></mask><rect id="e" x="9" y="11" width="4" height="3" rx="1"/><mask id="j" x="0" y="0" width="4" height="3" fill="#fff"><use xlink:href="#e"/></mask></defs><g fill="none" fill-rule="evenodd"><path d="M0 5.996C0 5.446.445 5 1 5h14c.552 0 1 .445 1 .996v9.008c0 .55-.445.996-1 .996H1c-.552 0-1-.445-1-.996V5.996zm2.737 2.003v1.002c0 .556.448.999 1 .999H6C6.544 10 7 9.553 7 9.001V7.999A.996.996 0 0 0 6 7H3.738c-.543 0-1 .447-1 .999zm6.263 0v1.002c0 .556.452.999 1.01.999h1.98A.999.999 0 0 0 13 9.001V7.999C13 7.443 12.548 7 11.99 7h-1.98A.999.999 0 0 0 9 7.999zm-6.263 4v1.002c0 .556.448.999 1 .999H6c.543 0 .999-.447.999-.999v-1.002A.996.996 0 0 0 6 11H3.738c-.543 0-1 .447-1 .999zm6.263 0v1.002c0 .556.452.999 1.01.999h1.98a.999.999 0 0 0 1.01-.999v-1.002c0-.556-.452-.999-1.01-.999h-1.98a.999.999 0 0 0-1.01.999z" fill="#E67300"/><use stroke="#000" mask="url(#f)" stroke-width="2" stroke-linecap="round" stroke-linejoin="round" xlink:href="#a"/><path d="M3.5.5v2" stroke="#000" stroke-linecap="round" stroke-linejoin="round"/><path d="M.5 5.5h15" stroke="#000" stroke-linecap="square"/><path d="M12.5.5v2" stroke="#000" stroke-linecap="round" stroke-linejoin="round"/><use stroke="#000" mask="url(#g)" stroke-width="2" xlink:href="#b"/><use stroke="#000" mask="url(#h)" stroke-width="2" xlink:href="#c"/><use stroke="#000" mask="url(#i)" stroke-width="2" xlink:href="#d"/><use stroke="#000" mask="url(#j)" stroke-width="2" xlink:href="#e"/></g></svg>