<svg width="26" height="24" viewBox="0 0 26 24" xmlns="http://www.w3.org/2000/svg"><title>5F6CFC16-B797-4DF8-B123-AB4B346959E0</title><g fill="#000" fill-rule="evenodd"><path d="M1.115 21.312c-.596-.216-1.06-.67-1.06-1.48 0-.95.806-1.63 1.91-1.63.752 0 1.138.108 1.502.27.221.086.365.28.365.508 0 .28-.232.518-.53.518a.77.77 0 0 1-.265-.054c-.276-.13-.729-.216-1.093-.216-.453 0-.751.216-.751.583 0 .28.22.453.452.529l1.083.346c.728.237 1.17.723 1.17 1.511 0 .95-.784 1.696-1.965 1.696-.652 0-1.182-.12-1.59-.303-.21-.097-.343-.28-.343-.496 0-.281.243-.54.552-.54.078 0 .177.032.254.064.298.152.663.249 1.149.249.53 0 .806-.195.806-.562 0-.4-.331-.529-.74-.67l-.906-.323zm4.68-.767c0-.907.375-1.317 1.071-1.317.707 0 1.082.42 1.082 1.317H5.795zm2.672-1.739c-.397-.399-.95-.604-1.6-.604-.641 0-1.193.205-1.602.604-.397.39-.607.93-.607 1.556v1.36c0 .637.21 1.177.607 1.566.409.4.96.605 1.601.605.586 0 1.149-.12 1.679-.368a.512.512 0 0 0 .287-.485c0-.281-.265-.508-.541-.508a.602.602 0 0 0-.232.054c-.376.162-.773.28-1.193.28-.375 0-.662-.129-.85-.366-.144-.195-.22-.486-.22-.93h2.572a.708.708 0 0 0 .718-.7v-.508c0-.627-.22-1.167-.619-1.556zm4.804 1.47c0-.66-.398-1.048-1.083-1.048-.364 0-.728.054-1.07.14v3.963a.562.562 0 0 1-.564.562.564.564 0 0 1-.574-.562v-4.19c0-.302.188-.561.486-.658a5.369 5.369 0 0 1 1.722-.281c.652 0 1.204.205 1.602.604.397.39.618.93.618 1.556v2.97a.564.564 0 0 1-.574.56.555.555 0 0 1-.563-.56v-3.057zm3.067 1.036c-.596-.216-1.06-.67-1.06-1.48 0-.95.806-1.63 1.91-1.63.751 0 1.138.108 1.502.27.221.086.365.28.365.508 0 .28-.232.518-.53.518a.772.772 0 0 1-.266-.054c-.276-.13-.728-.216-1.093-.216-.452 0-.75.216-.75.583 0 .28.22.453.452.529l1.082.346c.73.237 1.17.723 1.17 1.511 0 .95-.783 1.696-1.965 1.696-.652 0-1.181-.12-1.59-.303-.21-.097-.342-.28-.342-.496 0-.281.243-.54.552-.54.077 0 .177.032.254.064.298.152.662.249 1.148.249.53 0 .806-.195.806-.562 0-.4-.331-.529-.74-.67l-.905-.323zm4.25-4.106a.634.634 0 0 1-.64-.626c0-.346.287-.627.64-.627.353 0 .64.281.64.627a.634.634 0 0 1-.64.626zm-.574 1.557c0-.313.265-.561.574-.561.32 0 .563.248.563.561v4.568a.555.555 0 0 1-.563.562.571.571 0 0 1-.574-.562v-4.568zm3.11 2.549c-.596-.216-1.06-.67-1.06-1.48 0-.95.806-1.63 1.91-1.63.752 0 1.138.108 1.502.27a.547.547 0 0 1 .365.508c0 .28-.232.518-.53.518a.769.769 0 0 1-.265-.054c-.276-.13-.73-.216-1.093-.216-.453 0-.751.216-.751.583 0 .28.22.453.452.529l1.083.346c.728.237 1.17.723 1.17 1.511 0 .95-.784 1.696-1.966 1.696-.651 0-1.181-.12-1.59-.303-.21-.097-.342-.28-.342-.496 0-.281.243-.54.552-.54.077 0 .177.032.254.064.298.152.663.249 1.149.249.53 0 .806-.195.806-.562 0-.4-.332-.529-.74-.67l-.906-.323zM11.11 14.933H6.758a.563.563 0 0 1-.496-.292.539.539 0 0 1 .031-.566c.009-.012.962-1.437.434-2.986-.267-.785-.932-1.73-1.519-2.562-.903-1.284-1.5-2.132-1.042-2.771.376-.526 1.393-.669 2.338-.74.528-.038 1.03-.047 1.337-.048.375-.499 1.285-1.478 2.523-1.273.843.14.979 1.244 1.003 2.192.014.568-.02 1.122-.043 1.416.538.717 2.45 3.46 2.662 6.53h3.683c1.3 0 2.44-.717 2.905-1.828.48-1.144.097-2.342-1.026-3.203-.487-.375-1.198-.658-1.951-.957-.58-.23-1.18-.47-1.729-.77-1.104-.607-2.513-1.703-1.994-4.205A3.38 3.38 0 0 1 15.215.8a4.298 4.298 0 0 1 2.208-.785c1.562-.111 3.272.417 4.2.956a.543.543 0 0 1 .195.753.569.569 0 0 1-.77.192c-.806-.468-2.282-.896-3.543-.805-.993.07-2.252.631-2.531 1.978-.296 1.425.122 2.302 1.443 3.027.489.268 1.055.493 1.602.711.792.315 1.61.64 2.222 1.11 1.518 1.165 2.043 2.884 1.371 4.485-.639 1.525-2.187 2.51-3.944 2.51h-4.225a.556.556 0 0 1-.562-.549c0-3.334-2.552-6.545-2.577-6.577a.543.543 0 0 1-.118-.394c.113-1.109.061-2.313-.105-2.644-.306-.017-.63.128-.961.433a3.041 3.041 0 0 0-.497.594.566.566 0 0 1-.497.273c-1.257-.025-2.556.106-2.968.287.117.33.625 1.052.975 1.549.629.893 1.341 1.905 1.66 2.838.417 1.226.16 2.357-.132 3.092h3.45c.31 0 .562.246.562.55 0 .303-.252.549-.562.549M8.565 7.62a.606.606 0 0 0-.612-.599.606.606 0 0 0-.613.599c0 .33.275.598.613.598a.606.606 0 0 0 .612-.598"/></g></svg>