<svg width="28" height="24" viewBox="0 0 28 24" xmlns="http://www.w3.org/2000/svg"><title>4E3F673D-C88C-4BA1-A6E6-71B180499DFC</title><path d="M7.089 12.211c0-.529-.427-.959-.952-.959a.956.956 0 0 0-.952.96c0 .529.426.96.952.96.525 0 .952-.431.952-.96m3.96 11.72H4.276a.873.873 0 0 1-.772-.469.887.887 0 0 1 .05-.906c.012-.02 1.495-2.303.674-4.785-.416-1.259-1.45-2.772-2.362-4.107C.462 11.608-.467 10.249.245 9.225.83 8.381 2.412 8.152 3.882 8.04a29.41 29.41 0 0 1 2.08-.079c.583-.8 1.998-2.368 3.923-2.04 1.312.224 1.523 1.995 1.56 3.513.022.911-.03 1.798-.067 2.27.838 1.15 3.81 5.545 4.14 10.466h5.729c2.02 0 3.793-1.15 4.518-2.93.746-1.835.15-3.754-1.596-5.134-.758-.6-1.864-1.054-3.035-1.534-.901-.37-1.833-.751-2.688-1.235-1.718-.972-3.909-2.728-3.102-6.737a5.436 5.436 0 0 1 2.088-3.317c.955-.72 2.174-1.166 3.434-1.26 2.429-.177 5.088.67 6.53 1.533a.884.884 0 0 1 .306 1.207.87.87 0 0 1-1.198.307c-1.254-.75-3.549-1.435-5.51-1.29-1.546.114-3.504 1.012-3.938 3.17-.46 2.284.191 3.69 2.246 4.852.759.43 1.64.79 2.49 1.14 1.232.504 2.505 1.026 3.457 1.779 2.36 1.866 3.177 4.62 2.132 7.187-.994 2.444-3.402 4.023-6.134 4.023h-6.572a.877.877 0 0 1-.874-.88c0-5.343-3.968-10.49-4.008-10.541a.886.886 0 0 1-.183-.632c.175-1.777.095-3.706-.163-4.237-.477-.027-.98.206-1.495.694-.48.454-.77.947-.773.952a.875.875 0 0 1-.773.437c-1.955-.04-3.975.17-4.615.461.18.528.972 1.686 1.515 2.482.978 1.431 2.086 3.053 2.58 4.548.65 1.965.25 3.778-.202 4.956h5.364c.483 0 .874.394.874.88s-.39.88-.874.88" fill="#010202" fill-rule="evenodd"/></svg>