<svg id="logo-horizontal" width="70" height="24" viewBox="0 0 70 24" xmlns="http://www.w3.org/2000/svg"><title>Sensis</title><path d="M49.456 12.11a.932.932 0 0 0-.936-.927.932.932 0 0 0-.936.926c0 .51.42.92.936.92a.932.932 0 0 0 .936-.93m3.894 11.25h-6.657c-.318 0-.61-.15-.76-.42a.816.816 0 0 1 .05-.86c.013-.02 1.47-2.22.663-4.61-.41-1.22-1.426-2.67-2.323-3.96-1.38-1.99-2.294-3.3-1.594-4.29.57-.82 2.13-1.04 3.57-1.14A29.67 29.67 0 0 1 48.34 8c.573-.77 1.963-2.284 3.856-1.97 1.29.218 1.497 1.927 1.534 3.393a22.79 22.79 0 0 1-.065 2.2c.823 1.11 3.746 5.256 4.07 10.112h5.632c1.985 0 3.73-1.12 4.44-2.84.735-1.77.15-3.63-1.568-4.96-.75-.58-1.84-1.02-2.99-1.483-.89-.357-1.8-.727-2.64-1.194-1.69-.935-3.85-2.63-3.05-6.5a5.236 5.236 0 0 1 2.05-3.2A6.66 6.66 0 0 1 63 .346c2.388-.172 5.002.646 6.42 1.478.41.24.543.762.3 1.165a.864.864 0 0 1-1.176.29c-1.233-.73-3.49-1.39-5.42-1.25-1.518.11-3.443.98-3.87 3.06-.45 2.2.19 3.56 2.208 4.68.747.41 1.612.76 2.45 1.1 1.21.48 2.462.99 3.397 1.71 2.32 1.8 3.12 4.43 2.09 6.91-.98 2.36-3.35 3.85-6.03 3.85h-6.46c-.48 0-.86-.35-.86-.82 0-5.16-3.9-10.11-3.94-10.16a.828.828 0 0 1-.18-.61c.17-1.72.09-3.58-.16-4.09-.47-.03-.97.2-1.47.67a4.707 4.707 0 0 0-.76.92.864.864 0 0 1-.76.42c-1.92-.04-3.91.16-4.54.44.18.51.95 1.62 1.49 2.39.96 1.38 2.05 2.96 2.54 4.4.64 1.9.24 3.82-.2 4.79h5.27c.47 0 .86.34.86.81 0 .47-.39.81-.86.81M35.85 19.4c-.91-.337-1.62-1.04-1.62-2.29 0-1.47 1.23-2.52 2.92-2.52 1.15 0 1.74.164 2.29.415.34.135.553.436.553.787a.806.806 0 0 1-.81.804 1.14 1.14 0 0 1-.404-.083c-.43-.2-1.12-.333-1.67-.333-.7 0-1.15.33-1.15.9 0 .43.34.7.69.812l1.65.534c1.11.37 1.79 1.12 1.79 2.34 0 1.47-1.2 2.62-3.01 2.62-1 0-1.81-.183-2.44-.467-.32-.15-.52-.43-.52-.77 0-.44.37-.84.84-.84.12 0 .27.05.39.1.46.23 1.01.38 1.76.38.81 0 1.23-.3 1.23-.87 0-.62-.51-.82-1.13-1.04l-1.39-.5zm-4.92-3.945c0-.483.35-.867.82-.867.49 0 .81.38.81.86v7.066c0 .487-.32.87-.81.87-.47 0-.83-.383-.83-.87v-7.06zm1.04-2.407a.975.975 0 0 1-.98-.97c0-.54.44-.97.98-.97s.98.43.98.97c0 .53-.44.97-.98.97zm-6.5 6.35c-.91-.34-1.62-1.04-1.62-2.29 0-1.47 1.23-2.52 2.92-2.52 1.15 0 1.74.16 2.29.41.34.134.56.435.56.786a.806.806 0 0 1-.81.803 1.14 1.14 0 0 1-.406-.08c-.425-.2-1.117-.334-1.674-.334-.69 0-1.15.333-1.15.902 0 .43.336.7.69.814l1.655.54c1.116.36 1.79 1.12 1.79 2.34 0 1.47-1.2 2.62-3.004 2.62-.99 0-1.8-.19-2.43-.47-.32-.15-.52-.44-.52-.77 0-.43.37-.84.85-.84.12 0 .27.05.39.1.46.23 1.02.38 1.76.38.81 0 1.23-.3 1.23-.87 0-.62-.5-.82-1.13-1.04l-1.38-.5zm-4.69-1.61c0-1.02-.76-1.62-1.81-1.62-.56 0-1.14.08-1.79.214v6.13c0 .483-.34.87-.81.87-.49 0-.83-.386-.83-.87v-6.48c0-.47.39-.87.85-1.02a8.443 8.443 0 0 1 2.68-.434c1 0 1.81.317 2.42.935.61.605.92 1.44.92 2.408v4.59c0 .49-.34.87-.83.87-.49 0-.81-.38-.81-.87V17.8zm-8.14.353c0-1.29-.58-2.03-1.66-2.03-1.06 0-1.64.74-1.64 2.04h3.295zM9.36 19.8c0 .647.12 1.15.34 1.45.286.368.724.576 1.3.576.64 0 1.25-.18 1.822-.43a.912.912 0 0 1 .355-.082c.422 0 .827.35.827.785 0 .31-.135.6-.44.75a5.93 5.93 0 0 1-2.564.57c-.98 0-1.948-.32-2.573-.94-.608-.6-1.054-1.44-1.054-2.42v-2.11c0-.97.446-1.81 1.054-2.41.625-.62 1.53-.94 2.51-.94.997 0 1.798.31 2.406.93.608.6.903 1.44.903 2.4v.78c0 .6-.342 1.05-.95 1.05H9.36zm-7.155-.37c-.91-.336-1.62-1.037-1.62-2.29 0-1.47 1.232-2.522 2.92-2.522 1.15 0 1.74.167 2.297.418.338.133.557.434.557.785a.806.806 0 0 1-.81.81c-.12 0-.29-.03-.41-.08-.42-.2-1.12-.33-1.67-.33-.7 0-1.15.34-1.15.9 0 .44.34.7.69.82l1.65.54c1.11.37 1.79 1.12 1.79 2.34 0 1.47-1.2 2.62-3.01 2.62-1 0-1.81-.18-2.43-.46-.32-.15-.53-.43-.53-.76a.85.85 0 0 1 .84-.83c.11 0 .27.05.38.1.45.23 1.01.38 1.75.38.81 0 1.23-.3 1.23-.87 0-.62-.5-.82-1.13-1.04l-1.38-.5z" fill-rule="evenodd"/></svg>
