<svg id="logo-wordmark" width="51" height="16" viewBox="0 0 51 16" xmlns="http://www.w3.org/2000/svg"><title>7189D6AE-0FAF-4984-BA2D-D3C4899F28B5</title><path d="M45.222 10.8c-1.166-.436-2.073-1.35-2.073-2.983 0-1.915 1.57-3.286 3.73-3.286 1.47 0 2.22.22 2.93.55.43.18.71.57.71 1.03a1.04 1.04 0 0 1-1.04 1.04 1.46 1.46 0 0 1-.52-.11c-.54-.26-1.43-.43-2.14-.43-.89 0-1.47.44-1.47 1.18 0 .57.43.92.88 1.07l2.11.7c1.42.48 2.29 1.46 2.29 3.05 0 1.91-1.53 3.41-3.84 3.41-1.28 0-2.31-.24-3.11-.61-.41-.2-.67-.57-.67-1 0-.57.47-1.09 1.08-1.09.15 0 .34.06.49.13.58.3 1.3.5 2.25.5 1.03 0 1.57-.39 1.57-1.13 0-.81-.65-1.07-1.45-1.35l-1.77-.65zM39.14 5.662c0-.63.518-1.132 1.122-1.132.626 0 1.1.502 1.1 1.133v9.205c0 .63-.474 1.132-1.1 1.132-.604 0-1.123-.5-1.123-1.132V5.663zm1.122-3.14c-.69 0-1.252-.564-1.252-1.26C39.01.565 39.57 0 40.262 0s1.253.566 1.253 1.262c0 .697-.562 1.262-1.253 1.262zm-8.31 8.277c-1.168-.44-2.075-1.35-2.075-2.99 0-1.92 1.577-3.29 3.737-3.29 1.468 0 2.224.22 2.936.54.432.17.713.56.713 1.02a1.04 1.04 0 0 1-1.036 1.04 1.46 1.46 0 0 1-.52-.11c-.54-.26-1.424-.44-2.137-.44-.885 0-1.468.43-1.468 1.17 0 .56.432.91.885 1.06l2.117.69c1.425.48 2.29 1.45 2.29 3.04 0 1.92-1.534 3.42-3.846 3.42-1.274 0-2.31-.24-3.11-.61-.41-.19-.67-.56-.67-1 0-.57.476-1.09 1.08-1.09.152 0 .347.07.498.13.583.31 1.296.5 2.246.5 1.037 0 1.576-.39 1.576-1.13 0-.8-.647-1.07-1.446-1.35l-1.772-.65zm-6-2.09c0-1.33-.777-2.11-2.116-2.11a8.48 8.48 0 0 0-2.095.28v7.98c0 .63-.49 1.13-1.1 1.13a1.12 1.12 0 0 1-1.12-1.13V6.42c0-.61.37-1.132.95-1.33a10.227 10.227 0 0 1 3.37-.564c1.28 0 2.36.414 3.13 1.22.78.782 1.21 1.87 1.21 3.133v5.98A1.12 1.12 0 0 1 27.05 16c-.626 0-1.1-.5-1.1-1.132V8.71zm-10.408.54c0-1.81-.734-2.66-2.117-2.66-1.36 0-2.094.82-2.094 2.65h4.21zm-4.21 2.07c0 .89.15 1.48.43 1.87.368.48.93.74 1.663.74.82 0 1.598-.24 2.333-.57.15-.07.302-.11.453-.11.54 0 1.058.46 1.058 1.02 0 .41-.17.78-.56.98a7.47 7.47 0 0 1-3.28.74c-1.25 0-2.33-.42-3.13-1.22-.78-.78-1.19-1.87-1.19-3.16V8.88c0-1.262.41-2.35 1.19-3.133.8-.806 1.88-1.22 3.13-1.22 1.28 0 2.36.414 3.13 1.22.78.782 1.21 1.87 1.21 3.133v1.023c0 .784-.62 1.415-1.4 1.415h-5.03zM2.18 10.8C1.016 10.364.11 9.45.11 7.817c0-1.915 1.576-3.286 3.736-3.286 1.468 0 2.224.22 2.937.55.433.18.713.57.713 1.03A1.04 1.04 0 0 1 6.46 7.15a1.46 1.46 0 0 1-.518-.11C5.4 6.777 4.512 6.6 3.8 6.6c-.885 0-1.468.434-1.468 1.174 0 .566.432.914.886 1.066l2.116.697c1.425.478 2.29 1.457 2.29 3.046C7.624 14.5 6.09 16 3.778 16c-1.275 0-2.31-.24-3.11-.61-.41-.195-.67-.565-.67-1 0-.566.475-1.09 1.08-1.09.15 0 .345.067.496.132.583.305 1.296.5 2.246.5 1.037 0 1.577-.392 1.577-1.13 0-.806-.65-1.068-1.448-1.35L2.18 10.8z" fill="#020302" fill-rule="evenodd"/></svg>
