<svg width="70" height="24" viewBox="0 0 70 24" xmlns="http://www.w3.org/2000/svg"><title>C58F97A8-8FA5-4B83-B055-71490DFD3A8A</title><g fill="#000" fill-rule="evenodd"><path d="M49.456 12.11c0-.512-.42-.927-.936-.927a.932.932 0 0 0-.936.926c0 .51.42.926.936.926a.932.932 0 0 0 .936-.926M53.35 23.36h-6.657c-.318 0-.61-.144-.759-.422a.816.816 0 0 1 .048-.86c.014-.019 1.47-2.214.664-4.61-.41-1.214-1.426-2.671-2.323-3.96-1.38-1.986-2.294-3.295-1.594-4.284.575-.813 2.13-1.033 3.575-1.142.808-.06 1.574-.074 2.045-.075.574-.772 1.964-2.285 3.857-1.97 1.29.217 1.497 1.926 1.534 3.392.022.879-.03 1.745-.065 2.201.823 1.109 3.746 5.256 4.07 10.112h5.632c1.986 0 3.73-1.121 4.441-2.84.735-1.77.148-3.628-1.568-4.96-.746-.579-1.833-1.019-2.984-1.482-.886-.357-1.803-.727-2.643-1.194-1.689-.937-3.843-2.633-3.05-6.502a5.236 5.236 0 0 1 2.053-3.202C60.563.868 61.763.436 63 .347c2.388-.172 5.002.646 6.42 1.478.409.24.543.762.3 1.165a.864.864 0 0 1-1.176.297c-1.233-.725-3.49-1.385-5.419-1.246-1.519.11-3.444.977-3.87 3.06-.452 2.204.188 3.561 2.207 4.683.747.414 1.612.762 2.45 1.1 1.21.486 2.462.99 3.397 1.716 2.32 1.802 3.124 4.43 2.097 6.907-.978 2.359-3.345 3.853-6.031 3.853h-6.461c-.475 0-.86-.35-.86-.82 0-5.156-3.9-10.108-3.94-10.157a.828.828 0 0 1-.18-.603c.172-1.715.094-3.574-.16-4.086-.47-.026-.963.2-1.47.672a4.707 4.707 0 0 0-.76.92.864.864 0 0 1-.76.422c-1.922-.038-3.908.164-4.538.445.179.51.956 1.627 1.49 2.395.962 1.382 2.051 2.958 2.538 4.4.639 1.897.245 3.823-.2 4.794h5.274c.475 0 .86.34.86.809 0 .469-.385.81-.86.81M35.858 19.428c-.912-.334-1.62-1.035-1.62-2.288 0-1.47 1.232-2.522 2.92-2.522 1.149 0 1.74.167 2.297.418.338.133.557.434.557.785a.806.806 0 0 1-.81.801c-.119 0-.287-.033-.405-.084-.423-.2-1.115-.333-1.672-.333-.693 0-1.148.333-1.148.902 0 .434.337.701.692.818l1.655.535c1.114.367 1.79 1.118 1.79 2.338 0 1.47-1.2 2.622-3.006 2.622-.997 0-1.807-.184-2.432-.468-.32-.15-.523-.434-.523-.768 0-.434.371-.835.844-.835.119 0 .27.05.388.1.456.234 1.014.384 1.757.384.81 0 1.232-.3 1.232-.868 0-.618-.506-.819-1.131-1.036l-1.385-.5zm-4.923-3.942c0-.484.354-.868.826-.868.49 0 .81.384.81.868v7.065c0 .485-.32.869-.81.869-.472 0-.826-.384-.826-.869v-7.065zm1.045-2.408a.975.975 0 0 1-.98-.969c0-.534.44-.969.98-.969s.98.435.98.97c0 .534-.44.968-.98.968zm-6.498 6.35c-.912-.334-1.622-1.035-1.622-2.288 0-1.47 1.233-2.522 2.922-2.522 1.148 0 1.739.167 2.296.418.338.133.557.434.557.785a.806.806 0 0 1-.81.801c-.119 0-.287-.033-.405-.084-.423-.2-1.115-.333-1.672-.333-.692 0-1.148.333-1.148.902 0 .434.338.701.692.818l1.655.535c1.114.367 1.79 1.118 1.79 2.338 0 1.47-1.2 2.622-3.006 2.622-.996 0-1.807-.184-2.431-.468-.321-.15-.524-.434-.524-.768 0-.434.372-.835.845-.835.117 0 .27.05.388.1.456.234 1.013.384 1.756.384.81 0 1.232-.3 1.232-.868 0-.618-.506-.819-1.13-1.036l-1.385-.5zm-4.692-1.603c0-1.02-.761-1.62-1.808-1.62-.557 0-1.137.083-1.792.217v6.13c0 .484-.337.868-.81.868-.49 0-.826-.384-.826-.869v-6.48c0-.468.39-.868.846-1.019a8.443 8.443 0 0 1 2.685-.434c.997 0 1.814.317 2.422.935.608.602.92 1.437.92 2.405v4.593c0 .485-.337.869-.827.869-.49 0-.81-.384-.81-.869v-4.726zm-8.137.356c0-1.295-.574-2.037-1.654-2.037-1.064 0-1.638.742-1.638 2.037h3.292zm-3.292 1.618c0 .648.118 1.15.338 1.452.287.367.725.575 1.3.575.641 0 1.25-.18 1.823-.43a.912.912 0 0 1 .355-.082c.422 0 .827.351.827.785 0 .318-.135.602-.439.752A5.929 5.929 0 0 1 11 23.42c-.98 0-1.948-.317-2.573-.936-.608-.6-1.054-1.436-1.054-2.421v-2.105c0-.968.446-1.803 1.054-2.405.625-.618 1.531-.935 2.51-.935.997 0 1.798.317 2.406.935.608.602.903 1.437.903 2.405v.785c0 .602-.342 1.056-.95 1.056H9.361zm-7.156-.37c-.911-.335-1.62-1.036-1.62-2.29 0-1.468 1.232-2.521 2.92-2.521 1.149 0 1.74.167 2.297.418.338.133.557.434.557.785a.806.806 0 0 1-.81.801c-.119 0-.287-.033-.406-.084-.422-.2-1.114-.333-1.671-.333-.693 0-1.149.333-1.149.902 0 .434.339.701.693.818l1.655.535c1.114.367 1.79 1.118 1.79 2.338 0 1.47-1.2 2.622-3.006 2.622-.996 0-1.807-.184-2.431-.468-.321-.15-.524-.434-.524-.768 0-.434.371-.835.844-.835.118 0 .27.05.388.1.456.234 1.014.384 1.756.384.811 0 1.233-.3 1.233-.868 0-.618-.506-.819-1.131-1.036l-1.385-.5z"/></g></svg>