<svg id="logo-icon" width="28" height="24" viewBox="0 0 28 24" xmlns="http://www.w3.org/2000/svg"><title>4E3F673D-C88C-4BA1-A6E6-71B180499DFC</title><path d="M7.09 12.21a.957.957 0 0 0-.953-.958.956.956 0 0 0-.952.96c0 .53.426.96.952.96.525 0 .952-.43.952-.96m3.96 11.72H4.27a.873.873 0 0 1-.772-.47.887.887 0 0 1 .05-.905c.013-.02 1.496-2.303.675-4.785-.416-1.26-1.45-2.772-2.362-4.107C.46 11.608-.46 10.25.25 9.225.83 8.38 2.41 8.152 3.88 8.04a29.41 29.41 0 0 1 2.08-.08c.583-.8 1.998-2.367 3.923-2.04 1.312.225 1.523 1.996 1.56 3.514.022.91-.03 1.798-.067 2.27.838 1.15 3.81 5.545 4.14 10.466h5.73c2.02 0 3.792-1.15 4.517-2.93.746-1.835.15-3.754-1.596-5.134-.76-.6-1.865-1.054-3.036-1.534-.9-.37-1.83-.75-2.68-1.235-1.72-.972-3.91-2.728-3.1-6.737a5.436 5.436 0 0 1 2.09-3.317c.95-.72 2.17-1.166 3.43-1.26 2.43-.177 5.09.67 6.53 1.533a.884.884 0 0 1 .31 1.207.87.87 0 0 1-1.2.307c-1.25-.75-3.55-1.435-5.51-1.29-1.54.114-3.5 1.012-3.93 3.17-.46 2.284.19 3.69 2.25 4.852.76.43 1.64.79 2.49 1.14 1.23.504 2.51 1.026 3.46 1.78 2.36 1.865 3.18 4.62 2.13 7.186-.99 2.444-3.4 4.023-6.13 4.023h-6.58a.877.877 0 0 1-.87-.88c0-5.34-3.96-10.49-4-10.54a.886.886 0 0 1-.18-.63c.18-1.77.1-3.7-.16-4.23-.48-.02-.98.21-1.49.7-.48.46-.77.95-.78.95a.875.875 0 0 1-.78.44c-1.96-.04-3.98.17-4.62.46.18.53.98 1.69 1.52 2.49.98 1.43 2.09 3.05 2.58 4.55.65 1.97.25 3.78-.2 4.96h5.37a.88.88 0 0 1 0 1.76" fill="#010202" fill-rule="evenodd"/></svg>
