<svg id="logo-stacked" width="26" height="24" viewBox="0 0 26 24" xmlns="http://www.w3.org/2000/svg"><title>5F6CFC16-B797-4DF8-B123-AB4B346959E0</title><path d="M1.115 21.312c-.596-.216-1.06-.67-1.06-1.48 0-.95.806-1.63 1.91-1.63.752 0 1.138.108 1.502.27.22.086.365.28.365.508 0 .28-.232.518-.53.518a.77.77 0 0 1-.265-.054c-.276-.13-.73-.216-1.093-.216-.453 0-.75.216-.75.583 0 .28.22.46.45.53l1.084.35c.728.24 1.17.73 1.17 1.51 0 .95-.784 1.7-1.965 1.7-.652 0-1.182-.12-1.59-.3-.21-.1-.343-.28-.343-.5 0-.28.243-.54.552-.54a.66.66 0 0 1 .254.07c.298.15.663.25 1.15.25.53 0 .805-.19.805-.56 0-.4-.33-.53-.74-.67l-.9-.32zm4.68-.767c0-.907.375-1.317 1.07-1.317.708 0 1.083.42 1.083 1.317H5.795zm2.672-1.74c-.397-.398-.95-.603-1.6-.603-.64 0-1.193.205-1.602.604-.397.39-.607.93-.607 1.556v1.36c0 .637.21 1.177.607 1.566.41.4.96.605 1.6.605.587 0 1.15-.12 1.68-.368a.512.512 0 0 0 .287-.485c0-.28-.265-.508-.54-.508a.602.602 0 0 0-.233.054c-.38.162-.78.28-1.2.28-.38 0-.66-.13-.85-.366-.15-.195-.22-.486-.22-.93h2.57a.708.708 0 0 0 .71-.7v-.508c0-.627-.22-1.167-.62-1.556zm4.804 1.47c0-.66-.39-1.047-1.08-1.047a4.42 4.42 0 0 0-1.07.14v3.963a.562.562 0 0 1-.56.57.564.564 0 0 1-.57-.56v-4.19c0-.3.19-.56.49-.65a5.37 5.37 0 0 1 1.72-.28c.65 0 1.21.21 1.6.61.4.39.62.93.62 1.56v2.97a.564.564 0 0 1-.57.56.555.555 0 0 1-.56-.56V20.3zm3.07 1.037c-.59-.216-1.06-.67-1.06-1.48 0-.95.81-1.63 1.91-1.63.75 0 1.14.108 1.5.27a.55.55 0 0 1 .37.508c0 .28-.23.518-.53.518a.772.772 0 0 1-.26-.054c-.27-.13-.73-.216-1.09-.216-.45 0-.75.216-.75.583 0 .28.22.46.45.53l1.08.35c.73.24 1.17.73 1.17 1.51 0 .95-.78 1.7-1.96 1.7-.65 0-1.18-.12-1.59-.3a.545.545 0 0 1-.34-.49c0-.28.24-.54.55-.54a.7.7 0 0 1 .26.07c.3.15.66.25 1.15.25.53 0 .81-.19.81-.56 0-.4-.33-.53-.74-.67l-.9-.32zm4.25-4.106a.634.634 0 0 1-.64-.626c0-.346.29-.627.64-.627.36 0 .64.28.64.627a.634.634 0 0 1-.64.626zm-.57 1.557a.57.57 0 0 1 .58-.56c.32 0 .57.247.57.56v4.568a.555.555 0 0 1-.56.57.57.57 0 0 1-.57-.56v-4.57zm3.11 2.55c-.59-.217-1.06-.67-1.06-1.48 0-.95.81-1.63 1.91-1.63.75 0 1.14.107 1.5.27a.547.547 0 0 1 .37.507c0 .28-.23.518-.53.518a.77.77 0 0 1-.26-.054c-.27-.13-.73-.216-1.09-.216-.45 0-.75.216-.75.583 0 .28.22.46.45.53l1.09.35c.73.24 1.17.73 1.17 1.51 0 .95-.78 1.7-1.96 1.7-.65 0-1.18-.12-1.59-.3a.545.545 0 0 1-.34-.49c0-.28.25-.54.55-.54a.7.7 0 0 1 .26.07c.3.15.66.25 1.15.25.53 0 .8-.19.8-.56 0-.4-.33-.53-.74-.67l-.9-.32zm-12.01-6.38H6.76a.563.563 0 0 1-.496-.292.54.54 0 0 1 .03-.56c.01-.01.963-1.43.435-2.98-.27-.78-.94-1.73-1.52-2.56-.91-1.28-1.5-2.13-1.04-2.77.37-.52 1.39-.67 2.33-.74.53-.04 1.03-.04 1.33-.05.37-.49 1.28-1.47 2.52-1.27.84.14.98 1.25 1 2.19a14.47 14.47 0 0 1-.05 1.42c.54.72 2.45 3.46 2.66 6.53h3.68c1.3 0 2.44-.71 2.9-1.83.48-1.14.09-2.34-1.03-3.2-.49-.37-1.2-.65-1.95-.95-.58-.23-1.18-.47-1.73-.77-1.1-.6-2.51-1.7-1.99-4.2A3.38 3.38 0 0 1 15.21.8a4.298 4.298 0 0 1 2.21-.78c1.56-.11 3.27.417 4.2.956a.543.543 0 0 1 .194.76.57.57 0 0 1-.77.19c-.808-.47-2.284-.89-3.545-.8-1 .07-2.25.63-2.53 1.98-.3 1.43.12 2.3 1.44 3.03.49.27 1.05.5 1.6.71.79.32 1.61.64 2.22 1.11 1.52 1.17 2.04 2.89 1.37 4.49-.64 1.53-2.19 2.51-3.95 2.51h-4.22a.556.556 0 0 1-.56-.55c0-3.33-2.55-6.54-2.58-6.57a.543.543 0 0 1-.12-.39c.11-1.11.06-2.314-.11-2.645-.31-.01-.63.13-.96.44a3.04 3.04 0 0 0-.5.6.566.566 0 0 1-.5.27c-1.26-.02-2.56.11-2.97.29.11.33.62 1.06.97 1.55.63.9 1.34 1.91 1.66 2.84.42 1.23.16 2.36-.13 3.1h3.45a.56.56 0 0 1 .57.55c0 .3-.26.55-.57.55M8.56 7.63a.606.606 0 0 0-.61-.6.606.606 0 0 0-.616.6c0 .33.28.597.62.597a.606.606 0 0 0 .61-.597" fill-rule="evenodd"/></svg>
